<?xml version="1.0" encoding="utf-8"?>
<!-- Generator: Adobe Illustrator 20.1.0, SVG Export Plug-In . SVG Version: 6.00 Build 0)  -->
<svg version="1.1" id="l1" xmlns="http://www.w3.org/2000/svg" xmlns:xlink="http://www.w3.org/1999/xlink" x="0px" y="0px"
	 viewBox="0 0 25 25" style="enable-background:new 0 0 25 25;" xml:space="preserve">
<style type="text/css">
	.st0{fill:#C9C9C9;}
</style>
<path class="st0" d="M0,0v25h25V0H0z M15.4,9.6c-0.1,0.4-0.2,0.8-0.4,1.3c-0.2,0.5-0.6,1.5-1.3,2.9c-1.1,2.5-1.7,3.9-1.8,4.3
	c0,0.1,0,0.2,0.1,0.3c0.1,0.1,0.1,0.2,0.2,0.2c0.2,0,0.9-0.2,2.1-0.8l0.1,0l0.2,0.5l-0.1,0.1c-0.6,0.3-1.4,0.7-2.2,1.1
	c-0.9,0.4-1.5,0.6-1.8,0.7c-0.4,0.1-0.7,0.1-0.9,0.1c-0.3-0.1-0.5-0.2-0.6-0.5c-0.1-0.3-0.1-0.6-0.1-0.9c0.1-0.4,0.2-0.8,0.3-1.2
	c0.2-0.5,0.5-1.2,1-2.3c1.1-2.5,1.7-3.9,1.7-4.4c0-0.2,0-0.4-0.2-0.4c-0.3,0-1.1,0.2-2.3,0.8l-0.2,0l-0.2-0.5l0-0.2
	c1.6-0.9,2.8-1.5,3.7-1.8c0.9-0.3,1.5-0.5,2-0.4c0.2,0,0.4,0.1,0.5,0.3C15.4,9.1,15.4,9.3,15.4,9.6z M16.7,6
	c-0.4,0.3-0.8,0.5-1.3,0.4c-0.5-0.1-0.8-0.3-1-0.6c-0.2-0.3-0.2-0.7-0.1-1.1c0.1-0.5,0.3-0.9,0.7-1.2c0.4-0.3,0.8-0.4,1.3-0.3
	c0.4,0.1,0.7,0.2,0.9,0.5c0.2,0.3,0.3,0.6,0.2,1C17.2,5.2,17,5.6,16.7,6z"/>
</svg>
